<?xml version="1.0" encoding="UTF-8" standalone="no"?>
<!DOCTYPE svg PUBLIC "-//W3C//DTD SVG 1.1//EN"
 "http://www.w3.org/Graphics/SVG/1.1/DTD/svg11.dtd">
<!-- Generated by graphviz version 2.40.1 (20161225.0304)
 -->
<!-- Title: G Pages: 1 -->
<svg width="470pt" height="263pt"
 viewBox="0.00 0.00 469.83 263.00" xmlns="http://www.w3.org/2000/svg" xmlns:xlink="http://www.w3.org/1999/xlink">
<g id="graph0" class="graph" transform="scale(1 1) rotate(0) translate(4 259)">
<title>G</title>
<polygon fill="#ffffff" stroke="transparent" points="-4,4 -4,-259 465.8298,-259 465.8298,4 -4,4"/>
<g id="clust1" class="cluster">
<title>cluster_components</title>
<polygon fill="none" stroke="#000000" points="237.1477,-8 237.1477,-139 453.8298,-139 453.8298,-8 237.1477,-8"/>
<text text-anchor="middle" x="345.4888" y="-122.4" font-family="Times,serif" font-size="14.00" fill="#000000">components</text>
</g>
<g id="clust2" class="cluster">
<title>cluster_layouts</title>
<polygon fill="none" stroke="#000000" points="247.3348,-147 247.3348,-224 443.6427,-224 443.6427,-147 247.3348,-147"/>
<text text-anchor="middle" x="345.4888" y="-207.4" font-family="Times,serif" font-size="14.00" fill="#000000">layouts</text>
</g>
<g id="clust3" class="cluster">
<title>cluster_pages</title>
<polygon fill="none" stroke="#000000" points="8,-62 8,-247 217.1477,-247 217.1477,-62 8,-62"/>
<text text-anchor="middle" x="112.5739" y="-230.4" font-family="Times,serif" font-size="14.00" fill="#000000">pages</text>
</g>
<!-- components/Card.astro -->
<g id="node1" class="node">
<title>components/Card.astro</title>
<ellipse fill="none" stroke="#000000" cx="345.4888" cy="-88" rx="100.1823" ry="18"/>
<text text-anchor="middle" x="345.4888" y="-83.8" font-family="Times,serif" font-size="14.00" fill="#000000">components/Card.astro</text>
</g>
<!-- components/Test.astro -->
<g id="node2" class="node">
<title>components/Test.astro</title>
<ellipse fill="none" stroke="#000000" cx="345.4888" cy="-34" rx="98.3928" ry="18"/>
<text text-anchor="middle" x="345.4888" y="-29.8" font-family="Times,serif" font-size="14.00" fill="#000000">components/Test.astro</text>
</g>
<!-- layouts/Layout.astro -->
<g id="node3" class="node">
<title>layouts/Layout.astro</title>
<ellipse fill="none" stroke="#000000" cx="345.4888" cy="-173" rx="90.3081" ry="18"/>
<text text-anchor="middle" x="345.4888" y="-168.8" font-family="Times,serif" font-size="14.00" fill="#000000">layouts/Layout.astro</text>
</g>
<!-- pages/[dynamic].astro -->
<g id="node4" class="node">
<title>pages/[dynamic].astro</title>
<ellipse fill="none" stroke="#000000" cx="112.5739" cy="-196" rx="96.6478" ry="18"/>
<text text-anchor="middle" x="112.5739" y="-191.8" font-family="Times,serif" font-size="14.00" fill="#000000">pages/[dynamic].astro</text>
</g>
<!-- pages/[dynamic].astro&#45;&gt;layouts/Layout.astro -->
<g id="edge1" class="edge">
<title>pages/[dynamic].astro&#45;&gt;layouts/Layout.astro</title>
<path fill="none" stroke="#000000" d="M197.9802,-187.5662C216.2743,-185.7597 235.6712,-183.8443 254.1784,-182.0168"/>
<polygon fill="#000000" stroke="#000000" points="254.7483,-185.4776 264.356,-181.0117 254.0604,-178.5115 254.7483,-185.4776"/>
</g>
<!-- pages/about.astro -->
<g id="node5" class="node">
<title>pages/about.astro</title>
<ellipse fill="none" stroke="#000000" cx="112.5739" cy="-142" rx="78.1911" ry="18"/>
<text text-anchor="middle" x="112.5739" y="-137.8" font-family="Times,serif" font-size="14.00" fill="#000000">pages/about.astro</text>
</g>
<!-- pages/about.astro&#45;&gt;layouts/Layout.astro -->
<g id="edge2" class="edge">
<title>pages/about.astro&#45;&gt;layouts/Layout.astro</title>
<path fill="none" stroke="#000000" d="M180.5686,-151.0498C205.5718,-154.3776 234.2025,-158.1883 260.5148,-161.6903"/>
<polygon fill="#000000" stroke="#000000" points="260.0989,-165.1658 270.4733,-163.0158 261.0225,-158.2269 260.0989,-165.1658"/>
</g>
<!-- pages/index.astro -->
<g id="node6" class="node">
<title>pages/index.astro</title>
<ellipse fill="none" stroke="#000000" cx="112.5739" cy="-88" rx="78.1911" ry="18"/>
<text text-anchor="middle" x="112.5739" y="-83.8" font-family="Times,serif" font-size="14.00" fill="#000000">pages/index.astro</text>
</g>
<!-- pages/index.astro&#45;&gt;components/Card.astro -->
<g id="edge4" class="edge">
<title>pages/index.astro&#45;&gt;components/Card.astro</title>
<path fill="none" stroke="#000000" d="M191.1035,-88C205.1603,-88 220.0446,-88 234.805,-88"/>
<polygon fill="#000000" stroke="#000000" points="234.9922,-91.5001 244.9922,-88 234.9921,-84.5001 234.9922,-91.5001"/>
</g>
<!-- pages/index.astro&#45;&gt;components/Test.astro -->
<g id="edge5" class="edge">
<title>pages/index.astro&#45;&gt;components/Test.astro</title>
<path fill="none" stroke="#000000" d="M167.7714,-75.2028C199.7276,-67.7939 240.2869,-58.3905 274.5871,-50.4381"/>
<polygon fill="#000000" stroke="#000000" points="275.5964,-53.7971 284.5475,-48.1289 274.0153,-46.9779 275.5964,-53.7971"/>
</g>
<!-- pages/index.astro&#45;&gt;layouts/Layout.astro -->
<g id="edge3" class="edge">
<title>pages/index.astro&#45;&gt;layouts/Layout.astro</title>
<path fill="none" stroke="#000000" d="M178.9141,-97.7088C192.3279,-101.6532 205.7858,-107.2 217.1477,-115 229.7557,-123.6554 224.6158,-134.2349 237.1477,-143 246.0252,-149.2092 256.1465,-154.1361 266.5549,-158.045"/>
<polygon fill="#000000" stroke="#000000" points="265.5721,-161.4082 276.1668,-161.3561 267.852,-154.7899 265.5721,-161.4082"/>
</g>
</g>
</svg>
